<svg xmlns="http://www.w3.org/2000/svg" viewBox="0 0 32 32" width="512" height="512">
  <!-- Township icon: pixel town hall + speech bubble in a parchment badge. -->
  <!-- Hand-composed 32x32 grid; one <rect> per merged pixel run. -->
  <!-- No crispEdges: at multiples of 32 every edge is pixel-exact anyway; -->
  <!-- at favicon sizes (16/20px) antialiasing keeps the drawing intact. -->
  <rect x="15" y="21" width="1" height="5" fill="#9A7239"/>
  <rect x="4" y="0" width="24" height="1" fill="#C4A35A"/>
  <rect x="2" y="1" width="3" height="1" fill="#C4A35A"/>
  <rect x="27" y="1" width="3" height="1" fill="#C4A35A"/>
  <rect x="1" y="2" width="2" height="1" fill="#C4A35A"/>
  <rect x="29" y="2" width="2" height="1" fill="#C4A35A"/>
  <rect x="1" y="3" width="1" height="2" fill="#C4A35A"/>
  <rect x="30" y="3" width="1" height="2" fill="#C4A35A"/>
  <rect x="0" y="4" width="1" height="24" fill="#C4A35A"/>
  <rect x="31" y="4" width="1" height="24" fill="#C4A35A"/>
  <rect x="7" y="18" width="18" height="1" fill="#C4A35A"/>
  <rect x="1" y="27" width="1" height="3" fill="#C4A35A"/>
  <rect x="30" y="27" width="1" height="3" fill="#C4A35A"/>
  <rect x="2" y="29" width="1" height="2" fill="#C4A35A"/>
  <rect x="29" y="29" width="1" height="2" fill="#C4A35A"/>
  <rect x="3" y="30" width="2" height="1" fill="#C4A35A"/>
  <rect x="27" y="30" width="2" height="1" fill="#C4A35A"/>
  <rect x="4" y="31" width="24" height="1" fill="#C4A35A"/>
  <rect x="19" y="3" width="7" height="1" fill="#352434"/>
  <rect x="18" y="4" width="1" height="4" fill="#352434"/>
  <rect x="26" y="4" width="1" height="4" fill="#352434"/>
  <rect x="20" y="5" width="1" height="1" fill="#352434"/>
  <rect x="22" y="5" width="1" height="1" fill="#352434"/>
  <rect x="24" y="5" width="1" height="1" fill="#352434"/>
  <rect x="19" y="8" width="7" height="1" fill="#352434"/>
  <rect x="19" y="9" width="1" height="1" fill="#352434"/>
  <rect x="21" y="9" width="1" height="1" fill="#352434"/>
  <rect x="20" y="10" width="1" height="1" fill="#352434"/>
  <rect x="13" y="12" width="6" height="1" fill="#352434"/>
  <rect x="11" y="13" width="2" height="1" fill="#352434"/>
  <rect x="19" y="13" width="2" height="1" fill="#352434"/>
  <rect x="9" y="14" width="2" height="1" fill="#352434"/>
  <rect x="21" y="14" width="2" height="1" fill="#352434"/>
  <rect x="7" y="15" width="2" height="1" fill="#352434"/>
  <rect x="23" y="15" width="2" height="1" fill="#352434"/>
  <rect x="5" y="16" width="2" height="2" fill="#352434"/>
  <rect x="25" y="16" width="2" height="2" fill="#352434"/>
  <rect x="4" y="17" width="1" height="1" fill="#352434"/>
  <rect x="7" y="17" width="18" height="1" fill="#352434"/>
  <rect x="27" y="17" width="1" height="1" fill="#352434"/>
  <rect x="6" y="18" width="1" height="8" fill="#352434"/>
  <rect x="25" y="18" width="1" height="8" fill="#352434"/>
  <rect x="9" y="19" width="4" height="1" fill="#352434"/>
  <rect x="19" y="19" width="4" height="1" fill="#352434"/>
  <rect x="9" y="20" width="1" height="3" fill="#352434"/>
  <rect x="12" y="20" width="1" height="3" fill="#352434"/>
  <rect x="14" y="20" width="4" height="1" fill="#352434"/>
  <rect x="19" y="20" width="1" height="3" fill="#352434"/>
  <rect x="22" y="20" width="1" height="3" fill="#352434"/>
  <rect x="14" y="21" width="1" height="5" fill="#352434"/>
  <rect x="17" y="21" width="1" height="5" fill="#352434"/>
  <rect x="10" y="22" width="2" height="1" fill="#352434"/>
  <rect x="20" y="22" width="2" height="1" fill="#352434"/>
  <rect x="5" y="26" width="1" height="1" fill="#352434"/>
  <rect x="26" y="26" width="1" height="1" fill="#352434"/>
  <rect x="4" y="27" width="1" height="1" fill="#352434"/>
  <rect x="27" y="27" width="1" height="1" fill="#352434"/>
  <rect x="6" y="2" width="20" height="1" fill="#F5EDE0"/>
  <rect x="4" y="3" width="15" height="1" fill="#F5EDE0"/>
  <rect x="26" y="3" width="2" height="1" fill="#F5EDE0"/>
  <rect x="3" y="4" width="15" height="1" fill="#F5EDE0"/>
  <rect x="27" y="4" width="2" height="13" fill="#F5EDE0"/>
  <rect x="3" y="5" width="3" height="5" fill="#F5EDE0"/>
  <rect x="8" y="5" width="10" height="3" fill="#F5EDE0"/>
  <rect x="2" y="6" width="1" height="17" fill="#F5EDE0"/>
  <rect x="6" y="6" width="2" height="9" fill="#F5EDE0"/>
  <rect x="29" y="6" width="1" height="17" fill="#F5EDE0"/>
  <rect x="8" y="8" width="3" height="6" fill="#F5EDE0"/>
  <rect x="12" y="8" width="7" height="4" fill="#F5EDE0"/>
  <rect x="26" y="8" width="1" height="4" fill="#F5EDE0"/>
  <rect x="11" y="9" width="1" height="4" fill="#F5EDE0"/>
  <rect x="22" y="9" width="4" height="5" fill="#F5EDE0"/>
  <rect x="3" y="10" width="2" height="7" fill="#F5EDE0"/>
  <rect x="19" y="10" width="1" height="3" fill="#F5EDE0"/>
  <rect x="21" y="10" width="1" height="4" fill="#F5EDE0"/>
  <rect x="5" y="11" width="1" height="5" fill="#F5EDE0"/>
  <rect x="20" y="11" width="1" height="2" fill="#F5EDE0"/>
  <rect x="12" y="12" width="1" height="1" fill="#F5EDE0"/>
  <rect x="26" y="13" width="1" height="3" fill="#F5EDE0"/>
  <rect x="8" y="14" width="1" height="1" fill="#F5EDE0"/>
  <rect x="23" y="14" width="3" height="1" fill="#F5EDE0"/>
  <rect x="6" y="15" width="1" height="1" fill="#F5EDE0"/>
  <rect x="25" y="15" width="1" height="1" fill="#F5EDE0"/>
  <rect x="3" y="17" width="1" height="6" fill="#F5EDE0"/>
  <rect x="28" y="17" width="1" height="6" fill="#F5EDE0"/>
  <rect x="4" y="18" width="2" height="5" fill="#F5EDE0"/>
  <rect x="26" y="18" width="2" height="5" fill="#F5EDE0"/>
  <rect x="13" y="13" width="6" height="3" fill="#C16F59"/>
  <rect x="12" y="14" width="1" height="2" fill="#C16F59"/>
  <rect x="19" y="14" width="1" height="2" fill="#C16F59"/>
  <rect x="10" y="15" width="2" height="1" fill="#C16F59"/>
  <rect x="20" y="15" width="2" height="1" fill="#C16F59"/>
  <rect x="6" y="26" width="20" height="1" fill="#A7BAB9"/>
  <rect x="11" y="20" width="1" height="2" fill="#7ED7FF"/>
  <rect x="21" y="20" width="1" height="2" fill="#7ED7FF"/>
  <rect x="10" y="21" width="1" height="1" fill="#7ED7FF"/>
  <rect x="20" y="21" width="1" height="1" fill="#7ED7FF"/>
  <rect x="16" y="23" width="1" height="1" fill="#E3C654"/>
  <rect x="16" y="21" width="1" height="2" fill="#704325"/>
  <rect x="16" y="24" width="1" height="2" fill="#704325"/>
  <rect x="7" y="19" width="1" height="7" fill="#7D8188"/>
  <rect x="24" y="19" width="1" height="7" fill="#7D8188"/>
  <rect x="5" y="1" width="22" height="1" fill="#D9C48E"/>
  <rect x="3" y="2" width="3" height="1" fill="#D9C48E"/>
  <rect x="26" y="2" width="3" height="1" fill="#D9C48E"/>
  <rect x="2" y="3" width="2" height="1" fill="#D9C48E"/>
  <rect x="28" y="3" width="2" height="1" fill="#D9C48E"/>
  <rect x="2" y="4" width="1" height="2" fill="#D9C48E"/>
  <rect x="29" y="4" width="1" height="2" fill="#D9C48E"/>
  <rect x="1" y="5" width="1" height="22" fill="#D9C48E"/>
  <rect x="30" y="5" width="1" height="22" fill="#D9C48E"/>
  <rect x="2" y="26" width="1" height="3" fill="#D9C48E"/>
  <rect x="29" y="26" width="1" height="3" fill="#D9C48E"/>
  <rect x="3" y="28" width="1" height="2" fill="#D9C48E"/>
  <rect x="28" y="28" width="1" height="2" fill="#D9C48E"/>
  <rect x="4" y="29" width="2" height="1" fill="#D9C48E"/>
  <rect x="26" y="29" width="2" height="1" fill="#D9C48E"/>
  <rect x="5" y="30" width="22" height="1" fill="#D9C48E"/>
  <rect x="6" y="5" width="2" height="1" fill="#EDE4D3"/>
  <rect x="11" y="8" width="1" height="1" fill="#EDE4D3"/>
  <rect x="5" y="10" width="1" height="1" fill="#EDE4D3"/>
  <rect x="26" y="12" width="1" height="1" fill="#EDE4D3"/>
  <rect x="2" y="23" width="4" height="3" fill="#EDE4D3"/>
  <rect x="26" y="23" width="4" height="3" fill="#EDE4D3"/>
  <rect x="3" y="26" width="2" height="1" fill="#EDE4D3"/>
  <rect x="27" y="26" width="2" height="1" fill="#EDE4D3"/>
  <rect x="3" y="27" width="1" height="1" fill="#EDE4D3"/>
  <rect x="28" y="27" width="1" height="1" fill="#EDE4D3"/>
  <rect x="4" y="28" width="24" height="1" fill="#EDE4D3"/>
  <rect x="6" y="29" width="20" height="1" fill="#EDE4D3"/>
  <rect x="11" y="14" width="1" height="1" fill="#954A4D"/>
  <rect x="20" y="14" width="1" height="1" fill="#954A4D"/>
  <rect x="9" y="15" width="1" height="2" fill="#954A4D"/>
  <rect x="22" y="15" width="1" height="2" fill="#954A4D"/>
  <rect x="7" y="16" width="2" height="1" fill="#954A4D"/>
  <rect x="10" y="16" width="12" height="1" fill="#954A4D"/>
  <rect x="23" y="16" width="2" height="1" fill="#954A4D"/>
  <rect x="8" y="19" width="1" height="7" fill="#94A2A3"/>
  <rect x="13" y="19" width="6" height="1" fill="#94A2A3"/>
  <rect x="23" y="19" width="1" height="7" fill="#94A2A3"/>
  <rect x="13" y="20" width="1" height="6" fill="#94A2A3"/>
  <rect x="18" y="20" width="1" height="6" fill="#94A2A3"/>
  <rect x="9" y="23" width="4" height="3" fill="#94A2A3"/>
  <rect x="19" y="23" width="4" height="3" fill="#94A2A3"/>
  <rect x="5" y="27" width="22" height="1" fill="#94A2A3"/>
  <rect x="19" y="4" width="7" height="1" fill="#FFFFFF"/>
  <rect x="19" y="5" width="1" height="3" fill="#FFFFFF"/>
  <rect x="21" y="5" width="1" height="3" fill="#FFFFFF"/>
  <rect x="23" y="5" width="1" height="3" fill="#FFFFFF"/>
  <rect x="25" y="5" width="1" height="3" fill="#FFFFFF"/>
  <rect x="20" y="6" width="1" height="2" fill="#FFFFFF"/>
  <rect x="22" y="6" width="1" height="2" fill="#FFFFFF"/>
  <rect x="24" y="6" width="1" height="2" fill="#FFFFFF"/>
  <rect x="20" y="9" width="1" height="1" fill="#FFFFFF"/>
  <rect x="10" y="20" width="1" height="1" fill="#FFFFFF"/>
  <rect x="20" y="20" width="1" height="1" fill="#FFFFFF"/>
</svg>
